<svg width="168" height="198" viewBox="0 0 168 198" fill="none" xmlns="http://www.w3.org/2000/svg">
<path d="M108.118 0C108.315 0 108.483 0.0994951 108.68 0.119394H110.709C112.719 0.119394 114.64 0.945204 116.039 2.41773L165.941 54.9114C167.261 56.3043 168 58.1549 168 60.0851V151.282C168 176.415 147.793 197.647 123.872 197.647H45.1626C19.8424 197.647 0 177.28 0 151.282V126.349C0 122.23 3.31034 118.887 7.38916 118.887C11.468 118.887 14.7783 122.23 14.7783 126.349V151.282C14.7783 168.913 28.1281 182.723 45.1626 182.723H123.872C139.507 182.723 153.222 168.027 153.222 151.282V63.0799L115.507 23.4112V36.4152C115.507 46.4045 123.547 54.5532 133.438 54.5731C137.517 54.583 140.818 57.9261 140.808 62.0551C140.798 66.1643 137.498 69.4973 133.419 69.4973C115.389 69.4575 100.729 54.6228 100.729 36.4152V15.0437H45.1626C28.6897 15.0437 14.7783 28.6148 14.7783 44.6833V85.7847C14.7783 89.9038 11.468 93.2468 7.38916 93.2468C3.31034 93.2468 0 89.9038 0 85.7847V44.6833C0 20.5258 20.6798 0.119394 45.1626 0.119394H107.547C107.744 0.0994951 107.911 0 108.118 0ZM106.251 127.434C110.33 127.434 113.64 130.777 113.64 134.896C113.64 139.016 110.33 142.359 106.251 142.359H53.069C48.9901 142.359 45.6798 139.016 45.6798 134.896C45.6798 130.777 48.9901 127.434 53.069 127.434H106.251ZM86.133 78.1624C90.2118 78.1624 93.5222 81.5054 93.5222 85.6245C93.5222 89.7436 90.2118 93.0866 86.133 93.0866H53.069C48.9901 93.0866 45.6798 89.7436 45.6798 85.6245C45.6798 81.5054 48.9901 78.1624 53.069 78.1624H86.133Z" fill="black"/>
</svg>
